<?xml version="1.0" standalone="no"?>
<!DOCTYPE svg PUBLIC "-//W3C//DTD SVG 1.1//EN" "http://www.w3.org/Graphics/SVG/1.1/DTD/svg11.dtd" >
<svg xmlns="http://www.w3.org/2000/svg" xmlns:xlink="http://www.w3.org/1999/xlink" version="1.1">
<metadata>
Created by FontForge 20190801 at Fri Aug 18 00:55:28 2017
 By Jimmy Wärting
(c) 2014 Klim Type Foundry. All Rights Reserved.
</metadata>
<defs>
<font id="CopyrightKlimTypeFoundry-Fortestingonly.Notforcommercialuse." horiz-adv-x="506" >
  <font-face 
    font-family="Copyright Klim Type Foundry"
    font-weight="700"
    font-style="italic"
    font-stretch="normal"
    units-per-em="1000"
    panose-1="2 2 8 3 7 5 6 13 2 3"
    ascent="763"
    descent="-237"
    x-height="441"
    cap-height="606"
    bbox="-211 -210 938 672"
    underline-thickness="25"
    underline-position="-82"
    slope="-11"
    unicode-range="U+0020-007A"
  />
<missing-glyph horiz-adv-x="881" 
d="M245 -210l10 25l10 42l-4 52l-3 104l-40 100l-20 60l-38 76l-60 126l6 41l12 10l20 -1l18 -18l42 -61l18 -34l21 -30l9 -5l2 18l-8 33l-10 37l-10 42l-37 160l-1 27l19 11l32 -21l19 -48l22 -47l19 -54l41 -108l-4 72l-8 73l-13 133l-3 30l5 19l13 12l13 6l13 -6l10 -12
l37 -165l19 -105l23 -69l28 260l21 46l8 4l11 -3l13 -11l8 -15l3 -23l2 -36l4 -212l5 -68l8 -34l11 -15l23 3l20 22l46 47l29 22l51 19l51 -13l-1 -16l-118 -151l-19 -35l-21 -26l-88 -89l-29 -57l-3 -65l9 -47l-35 -17l-72 -3zM433 56l47 28l10 29l-2 41l-9 27l-9 11l-34 9
l-67 -6l-23 -13l-9 -35l3 -39l14 -37l19 -12zM490 65h12l38 12l37 20l17 11l3 5l-7 12l-50 41l-35 19l-9 2v-6l11 -25l1 -34l-7 -32zM331 77l-9 36l-4 25l4 24v11l6 11l-34 -14l-42 -29l-6 -6l3 -10l29 -28l28 -19zM417 77l-32 7l-12 10l-11 25l6 35l27 22l41 -6l15 -10
l10 -36l-9 -25l-10 -12z" />
    <glyph glyph-name=".notdef" horiz-adv-x="881" 
d="M245 -210l10 25l10 42l-4 52l-3 104l-40 100l-20 60l-38 76l-60 126l6 41l12 10l20 -1l18 -18l42 -61l18 -34l21 -30l9 -5l2 18l-8 33l-10 37l-10 42l-37 160l-1 27l19 11l32 -21l19 -48l22 -47l19 -54l41 -108l-4 72l-8 73l-13 133l-3 30l5 19l13 12l13 6l13 -6l10 -12
l37 -165l19 -105l23 -69l28 260l21 46l8 4l11 -3l13 -11l8 -15l3 -23l2 -36l4 -212l5 -68l8 -34l11 -15l23 3l20 22l46 47l29 22l51 19l51 -13l-1 -16l-118 -151l-19 -35l-21 -26l-88 -89l-29 -57l-3 -65l9 -47l-35 -17l-72 -3zM433 56l47 28l10 29l-2 41l-9 27l-9 11l-34 9
l-67 -6l-23 -13l-9 -35l3 -39l14 -37l19 -12zM490 65h12l38 12l37 20l17 11l3 5l-7 12l-50 41l-35 19l-9 2v-6l11 -25l1 -34l-7 -32zM331 77l-9 36l-4 25l4 24v11l6 11l-34 -14l-42 -29l-6 -6l3 -10l29 -28l28 -19zM417 77l-32 7l-12 10l-11 25l6 35l27 22l41 -6l15 -10
l10 -36l-9 -25l-10 -12z" />
    <glyph glyph-name="NULL" horiz-adv-x="0" 
 />
    <glyph glyph-name="nonmarkingreturn" horiz-adv-x="170" 
 />
    <glyph glyph-name="space" unicode=" " horiz-adv-x="170" 
 />
    <glyph glyph-name="comma" unicode="," horiz-adv-x="223" 
d="M-22 -92q56 11 85 39.5t30 56.5q-4 -1 -8 -1h-8q-30 0 -55 20.5t-25 58.5q0 34 25.5 58.5t58.5 24.5q40 0 64.5 -26t24.5 -72q0 -63 -56 -116t-133 -60z" />
    <glyph glyph-name="hyphen" unicode="-" horiz-adv-x="267" 
d="M217 215h-178l19 52h178z" />
    <glyph glyph-name="period" unicode="." horiz-adv-x="223" 
d="M-4 78q0 37 25.5 62.5t62.5 25.5t62 -25.5t25 -62.5t-25 -62.5t-62 -25.5t-62.5 25.5t-25.5 62.5z" />
    <glyph glyph-name="zero" unicode="0" horiz-adv-x="557" 
d="M243 -10q-86 0 -149 70.5t-63 185.5q0 132 93 251t222 119q86 0 149 -70.5t63 -185.5q0 -132 -93.5 -251t-221.5 -119zM240 18q65 0 112.5 175.5t47.5 291.5q0 54 -13 78.5t-38 24.5q-66 0 -113 -175.5t-47 -291.5q0 -54 13 -78.5t38 -24.5z" />
    <glyph glyph-name="one" unicode="1" horiz-adv-x="330" 
d="M296 454l-72 -372q-1 -9 -2.5 -16t-1.5 -13q0 -19 14.5 -24.5t50.5 -5.5l-4 -23h-312l4 23q46 0 62 10t23 49l80 412q1 7 2 13t1 10q0 11 -6 15.5t-20 4.5q-4 0 -14.5 -1t-38.5 -4l4 24l267 60q-8 -26 -16 -62t-21 -100z" />
    <glyph glyph-name="two" unicode="2" horiz-adv-x="454" 
d="M363 0h-417l1 5q231 190 291.5 265.5t60.5 138.5q0 39 -23 64.5t-69 25.5q-48 0 -81 -27t-58 -69l-18 7q31 75 94 140.5t159 65.5q69 0 111 -39t42 -102q0 -95 -91 -169.5t-242 -179.5h160q69 0 91.5 10.5t40.5 42.5h19z" />
    <glyph glyph-name="three" unicode="3" horiz-adv-x="461" 
d="M330 466h-128q-37 0 -59 -11.5t-41 -50.5h-18l68 202h368v-4l-279 -251l18 2t17 1q66 0 114.5 -38.5t48.5 -106.5q0 -101 -80 -160t-167 -59q-89 0 -138 49.5t-57 113.5l20 10q10 -51 44 -80.5t80 -29.5q59 0 97 43t38 106q0 47 -25.5 72.5t-64.5 25.5q-7 0 -14.5 -1
t-14.5 -2l-3 6z" />
    <glyph glyph-name="four" unicode="4" horiz-adv-x="538" 
d="M77 252h164l40 203zM431 24l-5 -24h-307l5 24q44 0 60 8t23 43l26 131h-234l2 9l395 393h75l-69 -356h22q41 0 66.5 2.5t51.5 14.5h4l-36 -63h-117l-26 -131q-1 -7 -1.5 -12.5t-0.5 -9.5q0 -20 14.5 -24.5t51.5 -4.5z" />
    <glyph glyph-name="five" unicode="5" horiz-adv-x="453" 
d="M429 214q0 -103 -80.5 -163.5t-169.5 -60.5t-137.5 49.5t-56.5 113.5l20 10q9 -51 43.5 -80.5t80.5 -29.5q64 0 103 43.5t39 105.5q0 49 -28.5 78t-70.5 29q-25 0 -46.5 -9t-41.5 -20l-8 2l106 318h165q75 0 96.5 6t38.5 34h19l-72 -181h-267l-43 -132q23 22 59 36t71 14
q75 0 127.5 -46t52.5 -117z" />
    <glyph glyph-name="six" unicode="6" 
d="M249 -10q-95 0 -159.5 65t-64.5 167q0 155 139.5 272t328.5 117q11 0 22.5 -0.5t22.5 -1.5l-4 -22h-10q-134 0 -216 -89.5t-112 -208.5q26 25 61 40.5t75 15.5q69 0 109 -42.5t40 -102.5q0 -90 -72.5 -150t-159.5 -60zM239 20q36 0 64.5 45t28.5 118q0 49 -21 77t-60 28
q-16 0 -32 -7t-29 -20q-6 -29 -9 -59t-3 -60q0 -58 15.5 -90t45.5 -32z" />
    <glyph glyph-name="seven" unicode="7" horiz-adv-x="456" 
d="M406 459h-245q-37 0 -60 -11t-42 -50h-18l71 208h413l-1 -4l-374 -602h-128l1 4q78 66 173 176t210 279z" />
    <glyph glyph-name="eight" unicode="8" horiz-adv-x="486" 
d="M214 -10q-82 0 -145 42t-63 108q0 58 47 95t112 52q-40 34 -61 65.5t-21 68.5q0 81 68 138t164 57q71 0 124 -35t53 -95q0 -57 -47.5 -92t-105.5 -45l38 -31q34 -28 58.5 -57.5t24.5 -71.5q0 -76 -70 -137.5t-176 -61.5zM270 406l55 -45q27 19 49.5 55t22.5 88
q0 37 -19.5 60t-61.5 23q-39 0 -66.5 -27t-27.5 -70q0 -28 15.5 -49t32.5 -35zM209 19q44 0 76.5 28.5t32.5 73.5q0 25 -15.5 45.5t-35.5 36.5l-87 72q-37 -28 -54 -67t-17 -79q0 -56 30.5 -83t69.5 -27z" />
    <glyph glyph-name="nine" unicode="9" 
d="M290 616q95 0 159.5 -65t64.5 -167q0 -155 -139.5 -272t-328.5 -117q-11 0 -22.5 0.5t-22.5 1.5l4 22h10q134 0 216 89.5t112 208.5q-26 -25 -61 -40.5t-75 -15.5q-69 0 -109 42.5t-40 102.5q0 90 72.5 150t159.5 60zM300 586q-36 0 -64.5 -45t-28.5 -118q0 -49 21 -77
t60 -28q16 0 32 7t29 20q6 29 9 59t3 60q0 58 -15.5 90t-45.5 32z" />
    <glyph glyph-name="A" unicode="A" horiz-adv-x="627" 
d="M295 451l-103 -194h133zM154 23l-4 -23h-193l4 23q37 0 59 11t41 48l284 525h88l93 -525q7 -37 18.5 -48t43.5 -11l-4 -23h-295l4 23q37 0 50.5 5.5t13.5 24.5q0 6 -1.5 13t-2.5 16l-23 144h-154l-75 -141q-5 -10 -7.5 -18.5t-2.5 -14.5q0 -16 16 -22.5t47 -6.5z" />
    <glyph glyph-name="B" unicode="B" horiz-adv-x="561" 
d="M85 606h261q86 0 150.5 -31t64.5 -100q0 -63 -57.5 -106t-133.5 -50q71 -6 121.5 -39t50.5 -94q0 -81 -79 -133.5t-205 -52.5h-291l4 23q37 0 51 11t21 48l85 442q2 9 3 16.5t1 12.5q0 19 -12 24.5t-40 5.5zM306 579l-49 -251h8q59 0 103 41.5t44 117.5q0 43 -24 67.5
t-71 24.5h-11zM240 26h8q41 0 85 40t44 137q0 52 -28 76t-79 24h-18l-45 -230q-1 -4 -1.5 -8.5t-0.5 -8.5q0 -19 11 -24.5t24 -5.5z" />
    <glyph glyph-name="C" unicode="C" 
d="M399 582q-90 0 -144.5 -110.5t-54.5 -231.5q0 -79 31 -127t88 -48q43 0 75.5 26.5t64.5 75.5l19 -13q-28 -57 -90 -110.5t-148 -53.5q-91 0 -151.5 64t-60.5 163q0 166 110 282.5t238 116.5q57 0 83.5 -19t45.5 -19q10 0 17 7.5t15 21.5h14l-39 -187h-22q5 70 -15.5 116
t-75.5 46z" />
    <glyph glyph-name="D" unicode="D" horiz-adv-x="624" 
d="M85 606h246q113 0 203.5 -58t90.5 -181q0 -150 -116 -258.5t-266 -108.5h-276l4 23q37 0 50.5 11t20.5 47l86 443q2 9 3 16.5t1 12.5q0 19 -12 24.5t-40 5.5zM238 27h4q79 0 143 107t64 258q0 92 -33.5 139t-96.5 47h-14l-98 -504q-1 -5 -1.5 -10t-0.5 -9
q0 -17 9.5 -22.5t23.5 -5.5z" />
    <glyph glyph-name="E" unicode="E" horiz-adv-x="528" 
d="M442 409l-37 -191h-19q3 46 -5.5 63.5t-67.5 17.5h-62l-43 -222q-1 -4 -1.5 -8t-0.5 -8q0 -20 13 -26t35 -6h13q84 0 126 23.5t87 125.5h19l-53 -178h-479l4 23q37 0 51 11t21 48l85 442q2 9 3 16.5t1 12.5q0 19 -12 24.5t-40 5.5l5 23h463l-28 -156h-20q6 79 -15.5 103
t-108.5 24h-71l-48 -249h62q59 0 74 17.5t30 63.5h19z" />
    <glyph glyph-name="F" unicode="F" horiz-adv-x="493" 
d="M273 0h-306l4 23q37 0 51 11t21 48l85 442q2 9 3 16.5t1 12.5q0 19 -12 24.5t-40 5.5l5 23h460l-28 -156h-19q6 79 -21 103t-121 24h-51l-48 -249h71q60 0 75 17.5t30 63.5h19l-37 -190h-18q3 46 -6 63t-69 17h-71l-42 -217q-1 -7 -2 -13.5t-1 -12.5q0 -19 15 -26t56 -7z
" />
    <glyph glyph-name="G" unicode="G" horiz-adv-x="576" 
d="M200 173q0 -62 20 -107.5t63 -45.5q22 0 35.5 12.5t17.5 36.5l25 126q1 8 2.5 15.5t1.5 13.5q0 19 -13 25t-41 6l4 23h269l-4 -23q-31 0 -42.5 -11t-18.5 -48l-33 -148q-46 -29 -107 -43.5t-110 -14.5q-106 0 -173.5 67t-67.5 169q0 166 121 278t252 112q63 0 90 -19
t43 -19q13 0 20 7.5t14 21.5h15l-39 -187h-23q6 69 -20 115.5t-80 46.5q-94 0 -157.5 -123t-63.5 -286z" />
    <glyph glyph-name="H" unicode="H" horiz-adv-x="660" 
d="M257 23l-4 -23h-286l4 23q37 0 51 11t21 48l85 442q2 9 3 16.5t1 12.5q0 19 -12 24.5t-40 5.5l5 23h286l-5 -23q-37 0 -50.5 -11t-20.5 -48l-36 -187h187l36 187q2 9 3 16.5t1 12.5q0 19 -12 24.5t-40 5.5l5 23h286l-5 -23q-37 0 -51 -11t-21 -48l-86 -442q-1 -9 -2 -16
t-1 -13q0 -19 12 -24.5t40 -5.5l-4 -23h-286l4 23q37 0 50.5 11t20.5 48l43 222h-187l-43 -222q-1 -9 -2.5 -16t-1.5 -13q0 -19 12 -24.5t40 -5.5z" />
    <glyph glyph-name="I" unicode="I" horiz-adv-x="306" 
d="M257 23l-4 -23h-286l4 23q37 0 51 11t21 48l85 442q2 9 3 16.5t1 12.5q0 19 -12 24.5t-40 5.5l5 23h286l-5 -23q-37 0 -50.5 -11t-20.5 -48l-86 -442q-1 -9 -2.5 -16t-1.5 -13q0 -19 12 -24.5t40 -5.5z" />
    <glyph glyph-name="J" unicode="J" horiz-adv-x="296" 
d="M21 -7l102 531q2 9 3 16.5t1 12.5q0 19 -12 24.5t-40 5.5l5 23h286l-5 -23q-37 0 -50.5 -11t-20.5 -48l-93 -478q-20 -105 -93.5 -157t-158.5 -52q-36 0 -64 10.5t-44 24.5l13 20q11 -8 28 -13.5t35 -5.5q42 0 68.5 30t39.5 90z" />
    <glyph glyph-name="K" unicode="K" horiz-adv-x="614" 
d="M257 23l-4 -23h-286l4 23q37 0 51 11t21 48l85 442q2 9 3 16.5t1 12.5q0 19 -12 24.5t-40 5.5l5 23h286l-5 -23q-37 0 -50.5 -11t-20.5 -48l-86 -442q-1 -9 -2.5 -16t-1.5 -13q0 -19 12 -24.5t40 -5.5zM583 0h-219l-105 315q13 2 30.5 13t39.5 33l173 171q11 10 15.5 18
t4.5 13q0 12 -16.5 16t-41.5 4l5 23h204l-5 -23q-37 0 -66 -12t-60 -43l-143 -138l101 -279q19 -50 36 -69t51 -19z" />
    <glyph glyph-name="L" unicode="L" horiz-adv-x="503" 
d="M428 0h-461l4 23q37 0 51 11t21 48l85 442q2 9 3 16.5t1 12.5q0 19 -12 24.5t-40 5.5l5 23h286l-5 -23q-37 0 -50.5 -11t-20.5 -48l-87 -447q-1 -4 -1.5 -8.5t-0.5 -8.5q0 -19 12 -25t35 -6h17q72 0 110 30t81 130h23z" />
    <glyph glyph-name="M" unicode="M" horiz-adv-x="770" 
d="M550 606h254l-5 -23q-41 0 -59 -10.5t-22 -46.5l-43 -446q-1 -5 -1 -10.5v-9.5q0 -22 12 -29.5t43 -7.5l-4 -23h-287l4 23q38 0 51 11t16 46l46 465l-270 -555h-10l-54 555l-126 -467q-1 -6 -2 -11t-1 -9q0 -22 20 -28.5t54 -6.5l-4 -23h-203l4 23q41 0 62.5 9.5
t31.5 45.5l122 448q2 7 3 14t1 11q0 19 -15.5 25.5t-48.5 6.5l5 23h259l25 -294z" />
    <glyph glyph-name="N" unicode="N" horiz-adv-x="603" 
d="M483 -10h-9l-297 514l-82 -422q-1 -4 -1.5 -8t-0.5 -7q0 -27 22 -35.5t59 -8.5l-4 -23h-217l4 23q43 0 68 11t32 48l91 466q-16 21 -33.5 28t-45.5 7l5 23h232l192 -345l50 263q1 4 1.5 8t0.5 7q0 27 -22 35.5t-59 8.5l5 23h218l-5 -23q-43 0 -68.5 -11t-32.5 -48z" />
    <glyph glyph-name="O" unicode="O" horiz-adv-x="605" 
d="M385 616q95 0 158.5 -67.5t63.5 -175.5q0 -146 -109 -264.5t-246 -118.5q-95 0 -158.5 67.5t-63.5 175.5q0 146 109 264.5t246 118.5zM433 468q0 55 -13 86.5t-41 31.5q-66 0 -120.5 -155.5t-54.5 -292.5q0 -54 13 -86t40 -32q66 0 121 155.5t55 292.5z" />
    <glyph glyph-name="P" unicode="P" horiz-adv-x="550" 
d="M291 299q62 0 100 47t38 119q0 57 -33 85.5t-79 28.5h-11l-54 -275q10 -2 19.5 -3.5t19.5 -1.5zM277 23l-4 -23h-306l4 23q37 0 51 11t21 48l85 442q2 9 3 16.5t1 12.5q0 19 -12 24.5t-40 5.5l5 23h260q92 0 167 -33.5t75 -111.5q0 -89 -82 -140t-178 -51q-25 0 -44 2.5
t-36 6.5l-38 -197q-1 -7 -2 -13.5t-1 -12.5q0 -19 15 -26t56 -7z" />
    <glyph glyph-name="Q" unicode="Q" horiz-adv-x="605" 
d="M341 -163q-62 0 -104.5 39t-42.5 108l1 13q-73 19 -119 82t-46 154q0 146 109 264.5t246 118.5q95 0 158.5 -67.5t63.5 -175.5q0 -122 -79.5 -229t-190.5 -141q4 -46 24.5 -75.5t62.5 -29.5q23 0 46 9.5t49 35.5l9 -11q-35 -42 -84.5 -68.5t-102.5 -26.5zM433 468
q0 55 -13 86.5t-41 31.5q-66 0 -120.5 -155.5t-54.5 -292.5q0 -54 13 -86t40 -32q66 0 121 155.5t55 292.5z" />
    <glyph glyph-name="R" unicode="R" horiz-adv-x="615" 
d="M253 310h19q50 0 103 42.5t53 129.5q0 55 -32 76t-75 21h-15zM253 0h-286l4 23q37 0 51 11t21 48l85 442q2 9 3 16.5t1 12.5q0 19 -12 24.5t-40 5.5l5 23h235q119 0 195 -31t76 -108q0 -66 -55 -108.5t-128 -59.5q22 -13 42 -36t31 -66l22 -79q16 -58 32.5 -76.5
t50.5 -18.5l-4 -23h-217l-44 180q-10 46 -22 74t-43 33h-8l-39 -205q-1 -9 -2.5 -16t-1.5 -13q0 -19 12 -24.5t40 -5.5z" />
    <glyph glyph-name="S" unicode="S" horiz-adv-x="465" 
d="M48 214q-10 -76 26 -135t104 -59q52 0 84.5 30t32.5 76q0 34 -18.5 55t-54.5 45l-70 47q-33 22 -57.5 54t-24.5 87q0 77 64 139.5t160 62.5q59 0 91.5 -20t51.5 -20q11 0 18.5 8t14.5 23h16l-38 -178l-20 -1q6 64 -26 110.5t-94 46.5q-43 0 -71 -26t-28 -66
q0 -31 15.5 -49.5t38.5 -34.5l62 -41q54 -36 84 -71t30 -87q0 -90 -73.5 -155t-180.5 -65q-63 0 -96.5 23.5t-53.5 23.5q-12 0 -21.5 -11.5t-16.5 -26.5h-17l44 214z" />
    <glyph glyph-name="T" unicode="T" horiz-adv-x="564" 
d="M435 578l-96 -496q-1 -7 -2 -13.5t-1 -11.5q0 -21 15.5 -27.5t55.5 -6.5l-4 -23h-328l4 23q50 0 67.5 11.5t24.5 47.5l97 496h-19q-72 0 -111.5 -29.5t-68.5 -125.5h-19l40 188q11 -2 28.5 -3.5t55.5 -1.5h367q38 0 55.5 1.5t30.5 3.5l-34 -188h-19q8 96 -17 125.5
t-103 29.5h-19z" />
    <glyph glyph-name="U" unicode="U" horiz-adv-x="641" 
d="M361 0l23 112q-27 -51 -75 -86.5t-111 -35.5q-66 0 -104.5 38.5t-38.5 113.5q0 14 1.5 30.5t4.5 34.5l62 317q2 9 3 16.5t1 12.5q0 19 -12.5 24.5t-40.5 5.5l5 23h287l-5 -23q-37 0 -51 -11t-21 -48l-66 -340q-3 -14 -4 -27t-1 -24q0 -37 15 -56t46 -19q29 0 60 25t53 76
l71 365q2 9 3 16.5t1 12.5q0 19 -12.5 24.5t-40.5 5.5l5 23h287l-5 -23q-37 0 -51 -11t-21 -48l-86 -442q-1 -9 -2.5 -16t-1.5 -13q0 -19 12 -24.5t41 -5.5l-4 -23h-227z" />
    <glyph glyph-name="V" unicode="V" horiz-adv-x="609" 
d="M228 -10h-6l-91 534q-6 37 -17.5 48t-43.5 11l5 23h285l-5 -23q-37 0 -50 -5.5t-13 -25.5q0 -5 1 -12t2 -16l43 -316l201 313q7 10 10 18.5t3 14.5q0 16 -18 22.5t-49 6.5l5 23h194l-5 -23q-37 0 -56.5 -12.5t-41.5 -46.5z" />
    <glyph glyph-name="W" unicode="W" horiz-adv-x="863" 
d="M501 -10l-44 407l-243 -407h-5l-72 535q-4 36 -14 47t-46 11l5 23h272l-5 -23q-30 0 -40.5 -4.5t-10.5 -23.5q0 -6 0.5 -13.5t1.5 -16.5l31 -285l120 207l-8 78q-5 37 -16 47.5t-36 10.5l5 23h272l-5 -23q-37 0 -49.5 -6t-12.5 -29q0 -4 0.5 -10t1.5 -13l22 -285l168 280
q6 10 9 18t3 15q0 18 -18.5 24t-49.5 6l5 23h196l-5 -23q-37 0 -57 -13t-42 -48l-327 -532h-6z" />
    <glyph glyph-name="X" unicode="X" horiz-adv-x="616" 
d="M161 23l-4 -23h-200l4 23q38 0 63.5 12.5t50.5 43.5l180 213l-85 232q-12 34 -24 46.5t-44 12.5l5 23h284l-5 -23q-28 0 -41 -5t-13 -19q0 -6 2.5 -15t6.5 -20l48 -130l108 132q9 11 13 20t4 14q0 13 -14.5 18t-39.5 5l5 23h190l-5 -23q-37 0 -60.5 -12.5t-49.5 -43.5
l-140 -165l102 -280q13 -34 28.5 -46.5t46.5 -12.5l-4 -23h-297l4 23q31 0 44.5 6t13.5 22q0 6 -1.5 13.5t-5.5 17.5l-64 177l-147 -179q-9 -11 -13 -19.5t-4 -14.5q0 -13 15 -18t43 -5z" />
    <glyph glyph-name="Y" unicode="Y" horiz-adv-x="590" 
d="M411 0h-328l4 23q50 0 67.5 11.5t24.5 47.5l46 237l-87 205q-16 37 -29 48t-38 11l5 23h287l-5 -23q-33 0 -48 -4t-15 -17q0 -6 3 -15t8 -22l75 -174l129 171q8 10 12 19t4 16q0 13 -16 19.5t-45 6.5l5 23h195l-5 -23q-37 0 -60 -13t-48 -45l-160 -211l-46 -232
q-1 -7 -1.5 -13.5t-0.5 -11.5q0 -21 15.5 -27.5t55.5 -6.5z" />
    <glyph glyph-name="Z" unicode="Z" horiz-adv-x="542" 
d="M454 0h-475v4l405 573h-93q-81 0 -124.5 -24t-68.5 -108h-20l39 161h466v-4l-398 -573h87q81 0 127 29.5t91 130.5h20z" />
    <glyph glyph-name="a" unicode="a" horiz-adv-x="486" 
d="M328 -10q-39 0 -61 19t-25 49q-22 -25 -56 -46.5t-71 -21.5q-46 0 -81 34t-35 95q0 134 114 233t257 99q20 0 49 -2t52 -9l-75 -362q-1 -4 -1 -7.5v-5.5q0 -11 5 -16t15 -5q7 0 14 3.5t15 8.5l9 -14q-28 -22 -60.5 -37t-64.5 -15zM208 61q9 0 17.5 3t15.5 9q0 6 1 12
t2 11l68 325q-49 -3 -102.5 -82t-53.5 -195q0 -40 16 -61.5t36 -21.5z" />
    <glyph glyph-name="b" unicode="b" horiz-adv-x="490" 
d="M143 -10q-40 0 -81 4.5t-60 8.5l110 567q2 10 3.5 18t1.5 15q0 16 -10 21t-35 5l4 21h208l-55 -281q18 28 55 55t88 27q52 0 84.5 -38t32.5 -96q0 -140 -107 -233.5t-239 -93.5zM161 21q59 -1 114 73t55 196q0 42 -16.5 65t-37.5 23q-16 0 -29 -9.5t-23 -24.5z" />
    <glyph glyph-name="c" unicode="c" horiz-adv-x="373" 
d="M156 194q0 -66 25.5 -98.5t66.5 -32.5q25 0 47 13t40 31l13 -15q-31 -36 -80 -69t-110 -33q-64 0 -107.5 44.5t-43.5 120.5q0 107 83.5 201.5t195.5 94.5q27 0 54 -6.5t55 -22.5l-27 -121l-25 1q10 53 -3 85.5t-53 32.5q-59 0 -95 -75.5t-36 -150.5z" />
    <glyph glyph-name="d" unicode="d" horiz-adv-x="491" 
d="M342 -10q-46 0 -66.5 23t-20.5 54q-20 -27 -58.5 -52t-84.5 -25t-79 34.5t-33 94.5q0 128 100 224.5t226 104.5l23 122q2 10 3.5 18t1.5 15q0 16 -10 21t-35 5l4 21h208l-111 -572q-1 -4 -1.5 -7.5t-0.5 -5.5q0 -11 5.5 -16t15.5 -5q7 0 14 3.5t14 8.5l9 -14
q-27 -22 -60 -37t-64 -15zM212 62q13 0 24.5 6t19.5 18q1 3 1 5.5t1 4.5l62 324q-57 -3 -109 -82.5t-52 -192.5q0 -42 16.5 -62.5t36.5 -20.5z" />
    <glyph glyph-name="e" unicode="e" horiz-adv-x="397" 
d="M167 -10q-65 0 -113 45t-48 121q0 105 87.5 200t200.5 95q63 0 93.5 -28.5t30.5 -65.5q0 -64 -74 -105.5t-187 -46.5v-5v-5q0 -69 29 -102.5t72 -33.5q25 0 48.5 13.5t41.5 32.5l11 -14q-31 -39 -80 -70t-112 -31zM279 425q-36 0 -74.5 -62.5t-46.5 -139.5
q75 12 111 66.5t36 104.5q0 13 -6 22t-20 9z" />
    <glyph glyph-name="f" unicode="f" horiz-adv-x="276" 
d="M15 26l74 382h-49l5 21l51 14q22 101 93 159t159 58q34 0 61.5 -8t46.5 -24l-26 -100h-22q7 46 -3.5 73.5t-47.5 27.5q-33 0 -57 -36t-35 -94l-12 -60q24 0 44 1t42 3l-13 -35h-79l-64 -327q-28 -145 -103 -213t-176 -68q-33 0 -64 9.5t-51 25.5l27 100h22
q-7 -46 4.5 -75t51.5 -29q41 0 70.5 44t50.5 151z" />
    <glyph glyph-name="g" unicode="g" horiz-adv-x="481" 
d="M-40 -102q0 44 48 72.5t99 38.5q-42 9 -73 41.5t-31 81.5q0 128 118 223.5t258 95.5q20 0 48 -2t57 -9l-80 -392q-27 -130 -105.5 -189t-179.5 -59q-64 0 -111.5 26t-47.5 72zM213 76q13 0 24.5 6t21.5 20l65 317q-57 0 -110 -77t-53 -184q0 -43 16 -62.5t36 -19.5z
M132 -177q34 0 58.5 33.5t40.5 110.5l23 111q-37 -50 -106.5 -80t-69.5 -111q0 -25 13 -44.5t41 -19.5z" />
    <glyph glyph-name="h" unicode="h" horiz-adv-x="512" 
d="M364 -10q-46 0 -66.5 23t-20.5 57q0 7 1 13t2 13l37 195q2 13 3.5 24t1.5 20q0 25 -9 35.5t-28 10.5q-16 0 -29.5 -10.5t-25.5 -31.5l-50 -259q-2 -13 -4 -22t-2 -16q0 -13 7.5 -17t26.5 -4l-4 -21h-234l4 21q28 0 35.5 11t14.5 48l95 490q2 10 3 18t1 15q0 16 -9.5 21
t-34.5 5l4 21h207l-55 -284q19 32 52.5 58.5t82.5 26.5q54 0 81 -31.5t27 -80.5q0 -10 -1 -20.5t-3 -21.5l-43 -219q-1 -4 -1 -7.5v-5.5q0 -11 5.5 -16t15.5 -5q6 0 13 3.5t15 8.5l9 -14q-28 -22 -60.5 -37t-63.5 -15z" />
    <glyph glyph-name="i" unicode="i" horiz-adv-x="252" 
d="M186 487q-35 0 -60 24t-25 58q0 36 25 59.5t60 23.5t60.5 -23.5t25.5 -59.5q0 -34 -25.5 -58t-60.5 -24zM243 441l-74 -363q-1 -4 -1 -7.5v-5.5q0 -11 5 -16t15 -5q7 0 14 3.5t14 8.5l10 -14q-28 -22 -60.5 -37t-64.5 -15q-46 0 -66.5 23t-20.5 57q0 7 1 13t2 13l54 265
q3 13 4.5 22.5t1.5 16.5q0 12 -7 16t-25 4l4 21h194z" />
    <glyph glyph-name="j" unicode="j" horiz-adv-x="251" 
d="M194 487q-36 0 -61 24t-25 58q0 36 25 59.5t61 23.5q34 0 59.5 -23.5t25.5 -59.5q0 -34 -25.5 -58t-59.5 -24zM-8 -78l86 439q2 12 3.5 20.5t1.5 14.5q0 15 -8.5 19.5t-28.5 4.5l4 21h201l-94 -483q-18 -78 -77.5 -118t-134.5 -40q-37 0 -62 8.5t-40 21.5l12 19
q10 -7 21.5 -11.5t28.5 -4.5q34 0 55.5 22.5t31.5 66.5z" />
    <glyph glyph-name="k" unicode="k" horiz-adv-x="496" 
d="M208 21l-4 -21h-234l4 21q28 0 35.5 11t14.5 48l95 490q1 10 2.5 18t1.5 15q0 16 -9.5 21t-34.5 5l4 21h207l-58 -300q35 43 83 72t99 29q40 0 62 -21t22 -49q0 -54 -42.5 -87t-102.5 -63l52 -123q24 -57 34 -72t33 -15l-4 -21h-181l-71 196q60 28 93 60t33 76
q0 16 -10 28t-29 12t-38 -12.5t-38 -37.5l-47 -242q-2 -13 -4 -22t-2 -16q0 -13 7.5 -17t26.5 -4z" />
    <glyph glyph-name="l" unicode="l" horiz-adv-x="251" 
d="M280 650l-111 -572q-1 -4 -1 -7.5v-5.5q0 -11 5 -16t15 -5q7 0 14 3.5t15 8.5l9 -14q-28 -22 -60.5 -37t-64.5 -15q-46 0 -66.5 23t-20.5 57q0 7 1 13t2 13l92 474q2 10 3 18t1 15q0 16 -9.5 21t-34.5 5l4 21h207z" />
    <glyph glyph-name="m" unicode="m" horiz-adv-x="764" 
d="M616 -10q-46 0 -66.5 23t-20.5 57q0 7 1 13t2 13l37 194q2 13 3.5 24t1.5 20q0 24 -9 35.5t-28 11.5q-16 0 -31.5 -12.5t-25.5 -34.5q0 -9 -1 -18t-3 -19l-42 -217q-2 -13 -3.5 -22t-1.5 -16q0 -13 7.5 -17t25.5 -4l-4 -21h-229l4 21q25 0 32 11t14 48l40 210
q2 13 3.5 24t1.5 20q0 24 -9 35.5t-28 11.5q-14 0 -28 -10.5t-26 -30.5l-50 -260q-3 -13 -5 -23t-2 -17q0 -12 7 -15.5t24 -3.5l-4 -21h-230l4 21q28 0 35.5 11t14.5 48l55 281q2 13 3.5 22t1.5 16q0 13 -7 17t-25 4l4 21h194l-14 -74q18 32 51 58t82 26t75 -24.5t32 -64.5
q19 33 55.5 61t87.5 28q54 0 81.5 -31.5t27.5 -80.5q0 -10 -1.5 -20.5t-3.5 -21.5l-42 -219q-1 -4 -1.5 -7.5t-0.5 -5.5q0 -11 5.5 -16t15.5 -5q6 0 13.5 3.5t14.5 8.5l9 -14q-27 -22 -60 -37t-64 -15z" />
    <glyph glyph-name="n" unicode="n" horiz-adv-x="514" 
d="M367 -10q-46 0 -66.5 23t-20.5 57q0 7 1 13t2 13l37 195q2 12 3.5 23t1.5 20q0 24 -9 35.5t-28 11.5q-15 0 -29 -10.5t-26 -30.5l-50 -260q-3 -13 -4.5 -22t-1.5 -16q0 -13 7.5 -17t26.5 -4l-4 -21h-234l4 21q28 0 35.5 11t14.5 48l55 281q2 13 3.5 22t1.5 16q0 13 -7 17
t-25 4l4 21h194l-14 -74q18 32 51.5 58t82.5 26q54 0 81 -31.5t27 -80.5q0 -10 -1 -20.5t-3 -21.5l-43 -219q-1 -4 -1 -7.5v-5.5q0 -11 5.5 -16t15.5 -5q6 0 13 3.5t15 8.5l9 -14q-28 -22 -60.5 -37t-63.5 -15z" />
    <glyph glyph-name="o" unicode="o" horiz-adv-x="473" 
d="M185 -10q-70 0 -123.5 47.5t-53.5 128.5q0 112 85.5 198.5t193.5 86.5q71 0 124.5 -47.5t53.5 -128.5q0 -112 -86 -198.5t-194 -86.5zM191 16q42 0 81 114.5t39 222.5q0 38 -8 55.5t-22 17.5q-42 0 -81 -115t-39 -223q0 -38 8 -55t22 -17z" />
    <glyph glyph-name="p" unicode="p" horiz-adv-x="492" 
d="M171 -190h-244l4 21q28 0 35.5 11t14.5 48l92 471q3 13 4.5 22t1.5 16q0 13 -7 17t-25 4l4 21h194l-14 -72q17 28 54 55t88 27q52 0 84.5 -38t32.5 -96q0 -136 -102 -228.5t-231 -98.5l-20 -100q-2 -10 -3.5 -19t-1.5 -16q0 -14 9.5 -19t33.5 -5zM278 378
q-16 0 -28.5 -8.5t-23.5 -24.5l-64 -326q59 -1 114 74.5t55 196.5q0 42 -16.5 65t-36.5 23z" />
    <glyph glyph-name="q" unicode="q" horiz-adv-x="486" 
d="M395 -190h-244l4 21q35 0 44 11t16 48l35 172q-20 -25 -56.5 -48.5t-81.5 -23.5q-46 0 -79 33.5t-33 93.5q0 145 119 239.5t262 94.5q20 0 50 -2t53 -9l-113 -550q-3 -13 -4.5 -22t-1.5 -16q0 -13 7.5 -17t26.5 -4zM213 62q13 0 22.5 6t19.5 18l68 333q-58 0 -111 -79
t-53 -195q0 -42 16.5 -62.5t37.5 -20.5z" />
    <glyph glyph-name="r" unicode="r" horiz-adv-x="387" 
d="M220 21l-4 -21h-244l4 21q28 0 35.5 11t14.5 48l55 281q3 13 4.5 22t1.5 16q0 13 -7.5 17t-25.5 4l4 21h194l-21 -109q42 67 70.5 93t60.5 26q17 0 32.5 -8t27.5 -18l-46 -143l-5 -1q-19 30 -41.5 46.5t-46.5 16.5q-14 0 -29.5 -11t-27.5 -27l-44 -226q-2 -10 -3.5 -19
t-1.5 -15q0 -15 9.5 -20t33.5 -5z" />
    <glyph glyph-name="s" unicode="s" horiz-adv-x="363" 
d="M128 18q35 0 57.5 20t22.5 48q0 26 -16 43.5t-62 45.5t-68 56.5t-22 65.5q0 64 55.5 109t140.5 45q29 0 60 -7t60 -22l-27 -117l-24 1q11 54 -9 85t-74 31q-25 0 -44.5 -14.5t-19.5 -39.5q0 -21 16.5 -37t55.5 -40q57 -34 79.5 -64t22.5 -67q0 -70 -61 -120t-148 -50
q-41 0 -80.5 11.5t-64.5 31.5l25 124h25q-10 -58 14 -98.5t86 -40.5z" />
    <glyph glyph-name="t" unicode="t" horiz-adv-x="318" 
d="M46 409l5 20q49 22 115 65t100 79h9l-27 -134q24 0 58 1t56 3l-13 -35h-106l-55 -280q-2 -13 -4 -23.5t-2 -19.5q0 -14 6 -22.5t19 -8.5q21 0 42 15t41 37l14 -15q-34 -43 -81.5 -72t-97.5 -29q-49 0 -75 24.5t-26 69.5q0 8 1 17.5t3 19.5l59 288h-41z" />
    <glyph glyph-name="u" unicode="u" horiz-adv-x="507" 
d="M358 -10q-46 0 -66.5 23t-20.5 57v3v3q-18 -33 -51.5 -59.5t-82.5 -26.5q-54 0 -81 32.5t-27 81.5q0 9 1 19.5t3 20.5l43 217q3 13 4.5 22t1.5 16q0 13 -7.5 17t-24.5 4l4 21h193l-56 -289q-4 -15 -5 -27t-1 -22q0 -23 8.5 -33t25.5 -10q16 0 30 10t26 30l51 261
q2 13 3.5 22t1.5 16q0 13 -7 17t-25 4l4 21h194l-71 -363q-1 -4 -1 -7.5v-5.5q0 -11 5 -16t15 -5q7 0 14 3.5t14 8.5l10 -14q-28 -22 -60.5 -37t-64.5 -15z" />
    <glyph glyph-name="v" unicode="v" horiz-adv-x="448" 
d="M149 -10h-4l-67 378q-6 34 -14.5 43t-30.5 9l4 21h246l-4 -21q-25 0 -35.5 -5t-10.5 -21q0 -5 1 -11.5t2 -15.5l22 -179l109 165q12 17 18 29t6 20q0 12 -15 15t-43 3l4 21h160l-4 -21q-26 0 -40 -11.5t-45 -54.5z" />
    <glyph glyph-name="w" unicode="w" horiz-adv-x="661" 
d="M364 -10l-33 274l-190 -274h-5l-61 378q-5 34 -12.5 43t-29.5 9l4 21h222l-4 -21q-18 0 -25 -4t-7 -20q0 -5 1 -12.5t2 -17.5l24 -174l77 112l-8 64q-4 34 -10.5 43t-28.5 9l4 21h225l-4 -21q-25 0 -33.5 -5t-8.5 -22q0 -4 0.5 -10.5t0.5 -15.5l12 -170l104 158
q10 16 15.5 28t5.5 19q0 11 -13.5 14.5t-41.5 3.5l4 21h161l-4 -21q-28 0 -43 -10t-46 -56l-249 -364h-5z" />
    <glyph glyph-name="x" unicode="x" horiz-adv-x="473" 
d="M115 21l-3 -21h-161l4 21q35 0 54.5 11t47.5 42l124 134l-56 169q-10 31 -20 37t-30 6l4 21h244l-4 -21q-23 0 -33 -3t-10 -14q0 -4 1.5 -11t4.5 -15l27 -80l65 70q12 13 18.5 23t6.5 16q0 7 -9 10.5t-28 3.5l4 21h154l-4 -21q-32 0 -53 -12t-49 -41l-95 -100l64 -193
q10 -31 21 -42t34 -11l-2 -21h-246l3 21q22 0 31 4.5t9 15.5q0 6 -2 14.5t-5 18.5l-35 104l-92 -104q-12 -13 -18 -22.5t-6 -15.5q0 -8 10.5 -11.5t29.5 -3.5z" />
    <glyph glyph-name="y" unicode="y" horiz-adv-x="445" 
d="M136 20l-58 348q-5 34 -14 43t-31 9l4 21h246l-4 -21q-25 0 -35.5 -5t-10.5 -21q0 -5 1 -11.5t2 -15.5l19 -185l112 171q12 17 17.5 29t5.5 19q0 12 -14.5 15.5t-42.5 3.5l4 21h160l-4 -21q-26 0 -40 -11t-45 -55l-215 -310q-51 -73 -115.5 -146.5t-97.5 -97.5l-147 11
l3 13q73 13 157 67t143 129z" />
    <glyph glyph-name="z" unicode="z" horiz-adv-x="422" 
d="M351 0h-386v4l287 409h-51q-54 0 -85 -28.5t-54 -92.5h-20l34 153q19 -2 45 -3t58 -1h264v-4l-289 -408h47q73 0 108.5 25.5t63.5 109.5h21z" />
    </font>
</defs>
</svg>
