<svg width="190" height="125" viewBox="0 0 190 125" fill="none" xmlns="http://www.w3.org/2000/svg">
<path d="M81.5311 30.3998L81.1151 30.6771L81.119 30.683L81.1231 30.6888L81.5311 30.3998ZM77.6911 27.8798L77.6089 28.373L77.6308 28.3766L77.6528 28.3783L77.6911 27.8798ZM79.4911 22.9598L79.7376 23.3948L80.0872 23.1967L79.969 22.8127L79.4911 22.9598ZM79.0111 21.3998L79.489 21.2527L79.3138 20.6833L78.7834 20.9546L79.0111 21.3998ZM70.4911 30.9998L70.9708 31.1409L70.9729 31.134L70.9747 31.127L70.4911 30.9998ZM71.2111 37.4798L71.6193 37.1907L71.6111 37.1798L71.2111 37.4798ZM80.0911 39.2798L80.3685 39.6958L80.3786 39.6891L80.3883 39.6819L80.0911 39.2798ZM87.8911 18.3998L87.7931 17.9095L87.2505 18.018L87.4132 18.5468L87.8911 18.3998ZM88.3711 19.9598L87.8932 20.1068L88.0051 20.4703L88.3852 20.4596L88.3711 19.9598ZM106.731 39.0398L107.229 38.9972V38.9969L106.731 39.0398ZM96.8911 62.9198L97.2101 63.3049L97.2137 63.3018L96.8911 62.9198ZM90.6511 81.7598L90.1569 81.8358L90.2327 82.3282L90.7253 82.2543L90.6511 81.7598ZM93.0511 81.3998L93.1253 81.8943L93.5883 81.8248L93.5494 81.3583L93.0511 81.3998ZM101.331 65.9198L101.514 66.3854L101.524 66.3811L101.331 65.9198ZM119.571 38.5598L119.072 38.5834V38.5839L119.571 38.5598ZM92.8111 90.8598C88.335 90.8598 84.7511 94.4437 84.7511 98.9198H85.7511C85.7511 94.9959 88.8873 91.8598 92.8111 91.8598V90.8598ZM84.7511 98.9198C84.7511 103.511 88.3299 107.1 92.8111 107.1V106.1C88.8924 106.1 85.7511 102.969 85.7511 98.9198H84.7511ZM92.8111 107.1C97.4073 107.1 100.991 103.516 100.991 98.9198H99.9911C99.9911 102.964 96.855 106.1 92.8111 106.1V107.1ZM100.991 98.9198C100.991 94.4385 97.4021 90.8598 92.8111 90.8598V91.8598C96.8602 91.8598 99.9911 95.0011 99.9911 98.9198H100.991ZM81.9472 30.1224C80.9298 28.5964 79.4866 27.5164 77.7295 27.3813L77.6528 28.3783C79.0157 28.4832 80.2125 29.3232 81.1151 30.6771L81.9472 30.1224ZM77.7733 27.3866C77.4085 27.3258 77.0487 26.9425 77.1923 26.1883C77.3354 25.4371 78.0138 24.3716 79.7376 23.3948L79.2446 22.5248C77.3685 23.5879 76.4269 24.8625 76.21 26.0012C75.9936 27.1371 76.5338 28.1938 77.6089 28.373L77.7733 27.3866ZM79.969 22.8127L79.489 21.2527L78.5333 21.5468L79.0132 23.1068L79.969 22.8127ZM78.7834 20.9546C73.491 23.6624 70.6421 28.4615 70.0076 30.8726L70.9747 31.127C71.5402 28.9781 74.2113 24.4172 79.2389 21.8449L78.7834 20.9546ZM70.0115 30.8587C69.3931 32.961 69.232 35.6743 70.8111 37.7798L71.6111 37.1798C70.3103 35.4453 70.3892 33.1186 70.9708 31.1409L70.0115 30.8587ZM70.8031 37.7688C72.989 40.8547 77.2484 41.7759 80.3685 39.6958L79.8138 38.8638C77.1739 40.6237 73.5133 39.8649 71.6192 37.1908L70.8031 37.7688ZM80.3883 39.6819C83.3614 37.4844 84.1406 33.2187 81.9391 30.1108L81.1231 30.6888C83.0017 33.3409 82.3408 36.9952 79.7939 38.8777L80.3883 39.6819ZM87.4132 18.5468L87.8932 20.1068L88.849 19.8127L88.369 18.2527L87.4132 18.5468ZM88.3852 20.4596C92.5356 20.3427 96.6943 21.599 99.9603 24.5602C103.224 27.5191 105.642 32.2219 106.233 39.0827L107.229 38.9969C106.621 31.9377 104.119 26.9805 100.632 23.8194C97.148 20.6605 92.7267 19.3369 88.3571 19.46L88.3852 20.4596ZM106.233 39.0824C106.827 46.027 105.726 50.7568 103.845 54.3004C101.958 57.8533 99.2654 60.2605 96.5685 62.5378L97.2137 63.3018C99.9169 61.0191 102.744 58.5063 104.728 54.7692C106.717 51.0228 107.836 46.0926 107.229 38.9972L106.233 39.0824ZM96.5722 62.5347C88.6765 69.0734 89.4312 77.1187 90.1569 81.8358L91.1453 81.6838C90.431 77.0409 89.7458 69.4862 97.21 63.3049L96.5722 62.5347ZM90.7253 82.2543L93.1253 81.8943L92.977 80.9053L90.577 81.2653L90.7253 82.2543ZM93.5494 81.3583C92.962 74.3088 95.6579 68.6817 101.514 66.3853L101.149 65.4543C94.7644 67.9579 91.9403 74.0908 92.5529 81.4413L93.5494 81.3583ZM101.524 66.3811C108.182 63.597 120.926 56.2627 120.071 38.5357L119.072 38.5839C119.896 55.6569 107.681 62.7226 101.138 65.4585L101.524 66.3811ZM120.071 38.5362C119.702 30.742 115.736 24.7448 109.797 21.1229C103.868 17.5077 95.9966 16.2688 87.7931 17.9095L87.9892 18.8901C95.9857 17.2908 103.594 18.5118 109.276 21.9767C114.947 25.4347 118.72 31.1376 119.072 38.5834L120.071 38.5362Z" fill="#FFCC00"/>
</svg>
