<svg width="190" height="125" viewBox="0 0 190 125" fill="none" xmlns="http://www.w3.org/2000/svg">
<path fill-rule="evenodd" clip-rule="evenodd" d="M39.923 54.0488L78.846 123.677H1L39.923 54.0488Z" stroke="#FFCC00"/>
<path fill-rule="evenodd" clip-rule="evenodd" d="M136.971 58.4698C151.875 58.4698 163.958 45.6045 163.958 29.7344C163.958 13.8643 151.875 0.999023 136.971 0.999023C122.067 0.999023 109.984 13.8643 109.984 29.7344C109.984 45.6045 122.067 58.4698 136.971 58.4698Z" stroke="#FFCC00"/>
<path d="M97 82C99.8854 82 99.8854 95.2625 102.771 95.2625C105.657 95.2625 105.657 82 108.543 82C111.429 82 111.429 95.2625 114.316 95.2625C117.202 95.2625 117.202 82 120.088 82C122.974 82 122.974 95.2625 125.861 95.2625C128.747 95.2625 128.747 82 131.634 82C134.521 82 134.521 95.2625 137.407 95.2625C140.294 95.2625 140.294 82 143.18 82C146.067 82 146.067 95.2625 148.954 95.2625C151.84 95.2625 151.84 82 154.726 82C157.612 82 157.612 95.2625 160.498 95.2625C163.385 95.2625 163.385 82 166.272 82C169.16 82 169.16 95.2625 172.047 95.2625C174.935 95.2625 174.935 82 177.821 82C180.71 82 180.71 95.2625 183.6 95.2625C186.488 95.2625 186.488 82 189.377 82" stroke="#FFCC00"/>
</svg>
