<svg width="178" height="132" viewBox="0 0 178 132" fill="none" xmlns="http://www.w3.org/2000/svg">
<path fill-rule="evenodd" clip-rule="evenodd" d="M39.923 54.0498L78.846 123.678H1L39.923 54.0498Z" fill="#FFCC00" stroke="#FFCC00" stroke-width="0.548431"/>
<path fill-rule="evenodd" clip-rule="evenodd" d="M136.971 58.4708C151.875 58.4708 163.958 45.6055 163.958 29.7354C163.958 13.8653 151.875 1 136.971 1C122.067 1 109.984 13.8653 109.984 29.7354C109.984 45.6055 122.067 58.4708 136.971 58.4708Z" fill="#FFCC00" stroke="#FFCC00" stroke-width="0.548431"/>
<path d="M85.0703 117.048C87.9557 117.048 87.9557 130.31 90.8411 130.31C93.727 130.31 93.727 117.048 96.6129 117.048C99.4994 117.048 99.4994 130.31 102.386 130.31C105.272 130.31 105.272 117.048 108.158 117.048C111.044 117.048 111.044 130.31 113.931 130.31C116.817 130.31 116.817 117.048 119.704 117.048C122.591 117.048 122.591 130.31 125.477 130.31C128.364 130.31 128.364 117.048 131.25 117.048C134.138 117.048 134.138 130.31 137.024 130.31C139.91 130.31 139.91 117.048 142.796 117.048C145.682 117.048 145.682 130.31 148.568 130.31C151.455 130.31 151.455 117.048 154.342 117.048C157.23 117.048 157.23 130.31 160.118 130.31C163.005 130.31 163.005 117.048 165.891 117.048C168.78 117.048 168.78 130.31 171.67 130.31C174.559 130.31 174.559 117.048 177.448 117.048" stroke="#FFCC00" stroke-width="1.64529"/>
</svg>
