<svg width="161" height="122" viewBox="0 0 161 122" fill="none" xmlns="http://www.w3.org/2000/svg">
<path d="M1.5 55.0678C3.7946 68.5193 6.58885 112.103 25.3383 120.508C26.6477 121.095 28.6999 121.349 29.5806 120.153C32.4131 116.304 34.0002 111.495 35.4084 106.825C40.0565 91.4098 42.0278 75.0518 47.7059 60.0421C48.4623 58.0425 52.7698 56.7713 53.5998 58.7367C55.5556 63.368 51.6439 69.3673 53.5998 73.9984L54.4948 79.3893C61.6387 96.3043 62.5336 41.0879 72.2159 48.9099C85.3266 59.5018 87.3707 79.1875 98.5505 91.3935C99.4433 92.3683 101.563 94.3695 102.024 93.0934C113.111 62.3414 105.164 57.7588 111.449 22.7818C113.024 14.0153 109.583 53.237 114.617 53.9842C125.947 55.6661 142.37 30.2708 151.668 59.8305C153.163 64.5832 154.268 72.4375 144.437 67.8169C134.74 63.2592 126.88 54.9641 117.382 49.9427C106.195 44.0285 93.9991 40.5963 82.6163 35.1331C79.2854 33.5344 69.7658 29.3622 73.3783 28.8228C87.6762 26.6879 102.267 28.9856 116.668 30.0487C118.622 30.1929 120.849 30.8128 122.117 32.4207C123.484 34.1549 121.932 40.1969 123.738 39.0171C130.068 34.8831 133.526 27.033 138.848 21.4934C145.717 14.344 153.131 7.82656 160.272 0.993164" stroke="#FFCC00" stroke-width="2"/>
</svg>
