<svg width="161" height="122" viewBox="0 0 161 122" fill="none" xmlns="http://www.w3.org/2000/svg">
<path d="M1 55.0746C3.2946 68.5261 6.08885 112.11 24.8383 120.515C26.1477 121.102 28.1999 121.356 29.0806 120.16C31.9131 116.311 33.5002 111.502 34.9084 106.831C39.5565 91.4166 41.5278 75.0586 47.2059 60.049C47.9623 58.0494 52.2698 56.7781 53.0998 58.7436C55.0556 63.3748 51.1439 69.3741 53.0998 74.0053L53.9948 79.3961C61.1387 96.3112 62.0336 41.0947 71.7159 48.9168C84.8266 59.5086 86.8707 79.1943 98.0505 91.4003C98.9433 92.3751 101.063 94.3764 101.524 93.1002C112.611 62.3482 104.664 57.7656 110.949 22.7887C112.524 14.0222 109.083 53.2438 114.117 53.991C125.447 55.6729 141.87 30.2777 151.168 59.8373C152.663 64.59 153.768 72.4443 143.937 67.8237C134.24 63.266 126.38 54.9709 116.882 49.9496C105.695 44.0354 93.4991 40.6031 82.1163 35.1399C78.7854 33.5412 69.2658 29.3691 72.8783 28.8297C87.1762 26.6948 101.767 28.9924 116.168 30.0555C118.122 30.1998 120.349 30.8196 121.617 32.4275C122.984 34.1618 121.432 40.2037 123.238 39.0239C129.568 34.8899 133.026 27.0399 138.348 21.5002C145.217 14.3509 152.631 7.8334 159.772 1" stroke="#FFCC00"/>
</svg>
