<svg width="491" height="341" viewBox="0 0 491 341" fill="none" xmlns="http://www.w3.org/2000/svg">
<path d="M178.968 308.736L178.981 308.723L178.994 308.71C219.759 265.907 219.771 199.637 177.967 157.833L177.958 157.824L177.949 157.815C157.548 138.435 132.075 130.295 106.684 128.257C104.807 127.931 103.357 126.762 102.342 124.725C101.302 122.637 100.742 119.67 100.742 115.931C100.742 108.463 102.971 98.2399 107.491 86.6894C116.524 63.6049 134.605 35.4758 161.723 13.8823L162.458 13.2967L161.919 12.5265L154.849 2.42655L154.325 1.67737L153.532 2.13291C105.995 29.4411 72.5252 60.8389 58.2606 83.2407C40.5442 108.048 17.5056 148.298 6.86296 190.362C-3.78029 232.428 -2.0743 276.55 30.1028 308.727C70.8981 349.522 137.175 349.51 178.968 308.736ZM458.738 308.736L458.751 308.723L458.764 308.71C499.529 265.907 499.541 199.637 457.737 157.833L457.728 157.824L457.719 157.815C437.318 138.435 411.845 130.295 386.454 128.257C384.577 127.931 383.127 126.762 382.112 124.725C381.072 122.637 380.512 119.67 380.512 115.931C380.512 108.463 382.741 98.2399 387.261 86.6894C396.294 63.605 414.375 35.4759 441.493 13.8823L442.228 13.2967L441.689 12.5265L434.619 2.42657L434.095 1.67739L433.302 2.13293C385.765 29.4411 352.295 60.8388 338.031 83.2405C320.314 108.048 297.276 148.298 286.633 190.362C275.99 232.428 277.696 276.55 309.873 308.727C350.668 349.522 416.945 349.51 458.738 308.736Z" stroke="#FFCC00" stroke-width="2"/>
</svg>
