<svg width="416" height="335" viewBox="0 0 416 335" fill="none" xmlns="http://www.w3.org/2000/svg">
<path fill-rule="evenodd" clip-rule="evenodd" d="M78.7813 206.98C93.1091 210.562 107.437 214.144 119.974 226.681C145.048 249.963 145.048 287.574 121.765 312.648C96.6907 337.722 57.289 337.722 34.0061 312.648C-3.60469 276.828 -7.1867 183.697 32.2151 110.266C34.0315 107.294 35.8175 104.291 37.6206 101.26C55.3755 71.4082 74.805 38.741 141.466 4.59786L145.048 9.97078C144.409 10.3939 143.774 10.8173 143.143 11.2408C7.53923 102.238 50.2583 201.632 78.7813 206.98ZM31.4814 315.141C56.2263 341.7 97.8935 341.535 124.272 315.156L124.319 315.109L124.363 315.061C148.861 288.68 149.005 248.847 122.435 224.127C109.214 210.932 94.08 207.149 79.9004 203.604L79.5384 203.513L79.4344 203.494C73.8679 202.45 66.5183 196.36 60.8126 185.165C55.2181 174.188 51.5826 158.95 52.9891 140.99C55.7922 105.196 78.6991 58.1697 147.006 12.9275L149.972 10.9633L142.663 4.53164e-05L139.849 1.4413C102.802 20.4165 80.0438 39.0304 64.0373 57.0949C51.013 71.7938 42.5032 86.1057 34.5186 99.5343C32.7307 102.541 30.969 105.504 29.189 108.417L29.1371 108.502L29.0901 108.589C9.0885 145.865 0.00282145 188.109 0.684944 225.626C1.3636 262.953 11.743 296.28 31.4814 315.141ZM386.831 312.648C361.757 337.722 322.356 337.722 299.073 312.648C261.462 276.828 257.88 183.697 297.282 110.266C299.098 107.294 300.884 104.291 302.687 101.26C320.442 71.4082 339.872 38.741 406.532 4.59789L410.114 9.9708C410.114 9.97114 410.113 9.97149 410.112 9.97183C409.475 10.3941 408.841 10.8165 408.212 11.2391C272.605 102.237 315.324 201.632 343.847 206.98C358.175 210.562 372.503 214.144 385.04 226.681C410.114 249.963 410.114 287.574 386.831 312.648ZM387.501 224.126C374.28 210.932 359.146 207.148 344.967 203.604L344.605 203.513L344.501 203.494C338.934 202.45 331.585 196.36 325.879 185.165C320.285 174.188 316.649 158.95 318.056 140.99C320.859 105.196 343.766 58.1698 412.072 12.9276L415.038 10.9633L407.729 6.84892e-05L404.915 1.44133C367.868 20.4165 345.11 39.0305 329.104 57.0949C316.08 71.7937 307.57 86.1055 299.585 99.5341C297.797 102.541 296.036 105.504 294.255 108.417L294.204 108.502L294.157 108.589C274.155 145.865 265.069 188.109 265.752 225.626C266.43 262.953 276.81 296.28 296.548 315.141C321.293 341.7 362.96 341.535 389.339 315.156L389.385 315.109L389.43 315.061C413.927 288.68 414.072 248.847 387.501 224.126Z" fill="#FFCC00"/>
</svg>
